<?xml version="1.0" encoding="UTF-8"?>
<svg xmlns="http://www.w3.org/2000/svg" viewBox="0 0 640 512">
    <rect y="56" width="640" height="400" rx="50" ry="50" style="stroke-width: 0px;"/>
    <polygon
            points="40.52 174.27 40.52 337.73 90.69 337.73 90.69 243.97 140.69 304.06 190.69 243.97 190.69 337.73 240.52 337.73 240.52 174.27 190.52 174.27 140.52 234.36 90.52 174.27 40.52 174.27"
            style="fill: #fff; stroke-width: 0px;"/>
    <polygon
            points="411.94 255.96 331.5 324.9 331.5 278.97 253.37 278.97 253.37 233.03 331.5 233.03 331.5 187.1 411.94 255.96"
            style="fill: #fff; stroke-width: 0px;"/>
    <polygon
            points="453.38 174.27 596.2 174.27 596.2 222.87 546.71 222.87 547.24 337.73 502.54 337.73 503.12 222.87 453.38 222.87 453.38 174.27"
            style="fill: #fff; stroke-width: 0px;"/>
</svg>